<?xml version="1.0" encoding="utf-8"?>
<!-- Generator: Adobe Illustrator 25.0.0, SVG Export Plug-In . SVG Version: 6.00 Build 0)  -->
<svg version="1.1" id="Layer_1" xmlns="http://www.w3.org/2000/svg" xmlns:xlink="http://www.w3.org/1999/xlink" x="0px" y="0px"
	 viewBox="0 0 1024 437" style="enable-background:new 0 0 1024 437;" xml:space="preserve">
<style type="text/css">
	.st0{fill:#FFFFFF;}
</style>
<g>
	<path class="st0" d="M946.36,103.43c-0.15-15,2.2-30.94-4.4-46.25c-0.73-1.69,0.01-4.97,1.3-6.39
		c5.93-6.52,12.21-12.74,18.56-18.87c2.91-2.81,5.74-1.63,6.84,1.82c2.29,7.2,5.31,14.47,5.82,21.87
		c1.03,14.82,0.86,29.74,0.69,44.62c-0.28,24.76-1.12,49.52-1.35,74.28c-0.06,6.18,0.82,12.48,2.22,18.5
		c0.64,2.78,3.17,6.34,5.59,7.07c1.75,0.53,5.06-2.7,7.09-4.81c1.88-1.94,3.09-4.57,4.41-7c1.5-2.74,3.78-4.16,6.24-2.1
		c1.41,1.18,2.72,4.6,2.01,5.83c-4.65,8.05-9.55,16-15.01,23.52c-3,4.14-6.94,7.77-11.01,10.93c-7.73,6-16.51,3.79-20.57-5.15
		c-1.98-4.36-2.99-9.15-4.62-14.29c-2.98,3.44-5.96,6.54-8.55,9.94c-16.34,21.52-42.92,18.13-58.84,1.62
		c-18.38-19.07-24.83-50.55-11.89-72.02c12.04-19.96,27.65-37.73,52.29-42.9C930.42,102.14,938.24,103.43,946.36,103.43z
		 M946.6,143.98c-2.36-1.21-4-1.61-5.01-2.63c-9.54-9.7-21.61-11.76-34.42-11.45c-8.39,0.21-12.64,3.34-14.28,11.59
		c-2.81,14.13-2.1,28.22,5.66,40.71c7.36,11.84,17.8,19.9,32.71,19.61c7.71-0.15,15.21-6.87,15.29-13.67
		C946.72,173.25,946.6,158.37,946.6,143.98z"/>
	<path class="st0" d="M475.96,150.15c-9.09,13.86-14.48,28.2-19.08,42.9c-0.46,1.49-1.07,2.96-1.3,4.48
		c-2.25,15.03-12.37,25.56-21.21,36.78c-0.84,1.06-3.14,1.96-4.26,1.55c-1.17-0.43-2.16-2.42-2.5-3.9
		c-5.59-24.08-10.78-48.26-16.75-72.25c-1.85-7.45-5.53-14.49-8.86-21.49c-0.98-2.07-3.38-4.2-5.55-4.8
		c-3.79-1.04-3.93-3.46-2.86-5.89c4.58-10.39,12.12-18.52,21.02-25.3c3.21-2.45,6.6-0.4,8.43,2.6c2.6,4.25,5.24,8.67,6.72,13.37
		c6.17,19.61,11.91,39.36,18.01,59.72c6.29-15.52,12.57-31.01,18.85-46.51c0.13-0.32,0.38-0.68,0.33-0.97
		c-2.48-12.98,6.81-19.41,14.95-26.24c7.53-6.32,9.73-5.35,13.17,3.9c9.14,24.62,18.47,49.18,27.73,73.76
		c0.3,0.8,0.75,1.54,1.42,2.88c7.12-19.72,14.42-38.82,9.82-59.91c-0.81-3.71,0.06-6.62,3.06-9.22c5.24-4.53,9.92-9.74,15.35-14
		c6.09-4.77,9.28-3.44,11.68,3.94c2.41,7.4,2.02,14.87-0.7,21.93c-5.59,14.5-11.98,28.7-17.54,43.21
		c-4.82,12.56-8.82,25.44-13.46,38.07c-1.47,3.99-3.61,7.8-5.86,11.43c-1.91,3.07-4.44,5.76-6.66,8.63
		c-7.79,10.08-8.41,10.16-13.28-1.84c-9.16-22.58-17.91-45.33-26.85-68C478.71,156.27,477.47,153.62,475.96,150.15z"/>
	<path class="st0" d="M69.34,79.94c-0.69,11.29-1.47,22.14-1.84,33c-0.04,1.11,2.29,3.06,3.76,3.34
		c17.62,3.26,35.24,2.41,52.84-0.34c1.2-0.19,2.4-0.48,3.6-0.52c4.85-0.15,7.08,3.11,4.13,6.97c-7.5,9.82-15.47,19.66-28.54,21.96
		c-12.42,2.19-25.04,3.26-38.34,4.91c-1.54,15.58-2.51,31.72,1.94,47.67c0.35,1.24,2.14,2.63,3.49,2.95
		c17.75,4.25,35.75,5.81,53.6,1.44c6.12-1.5,11.53-5.85,17.25-8.93c1.34-0.72,2.57-1.99,3.96-2.16c1.52-0.18,3.83,0.14,4.55,1.13
		c0.67,0.93,0.22,3.4-0.61,4.58c-11.73,16.54-26.47,29.14-46.39,34.93c-14.88,4.32-29.9,3.15-44.95,1.54
		c-1.21-0.13-2.4-0.36-3.61-0.48c-12.04-1.2-12.14-1.23-15.03-13.05c-4.99-20.34-3.36-40.97-2.74-61.58
		c0.69-23.19,1.24-46.39,1.54-69.59c0.06-4.42-0.85-9.04-2.25-13.25c-1.32-3.99-0.37-6.51,2.55-9.09c5.19-4.6,10-9.65,15.36-14.03
		c1.91-1.56,5.05-2.58,7.5-2.38c14.7,1.2,29.33,3.21,44.04,4.17c7.52,0.49,15.14-0.76,22.73-1.02c2.24-0.08,4.51,0.53,6.76,0.83
		c-0.66,2.69-0.41,6.54-2.12,7.87c-7.9,6.12-16.06,12.02-24.67,17.08c-9.98,5.86-21.01,4.91-31.94,2.79
		C73.93,80.31,71.88,80.22,69.34,79.94z"/>
	<path class="st0" d="M777.71,350.75c-0.35-4.08-1.03-7.96-0.97-11.82c0.37-21.7,7.78-40.36,24.46-54.81
		c3.11-2.69,6.28-5.49,9.87-7.39c1.8-0.95,4.62,0,6.97,0.09c-0.79,2.06-1.13,4.49-2.46,6.11c-4.87,5.94-11.19,10.98-14.94,17.51
		c-12.24,21.39-11.25,43.35,2.17,63.59c13.71,20.67,36.73,30,61.73,22.21c21.24-6.62,33.79-21.72,38.49-43.96
		c3.45-16.3,0.17-30.79-8.05-44.42c-3.13-5.19-7.81-9.65-12.5-13.61c-2.54-2.15-3.61-4.28-1.85-6.29c1.01-1.15,5.05-1.34,6.33-0.28
		c5.96,4.91,11.94,9.98,16.99,15.79c12.19,14.04,17.94,34.33,14.97,56.26c5.31-0.12,7.54-2.98,8.27-8.09
		c0.83-5.79,2.41-11.48,3.69-17.21c0.86-3.87,3.33-6.09,7.28-6.13c11.63-0.11,23.26-0.08,34.89-0.04c7.1,0.02,6.98,5.94,8.44,10.95
		c3.99,0,7.97,0.01,11.94,0c3.98-0.01,6.96,1.51,7.17,5.8c0.22,4.6-2.89,6.54-6.99,6.62c-9.02,0.19-18.06-0.09-27.07,0.27
		c-2.2,0.09-5.03,1.35-6.36,3.03c-4.81,6.08-9.24,12.48-13.55,18.95c-2.82,4.24-6.18,6.91-11.54,6.08
		c-0.51-0.08-1.04-0.02-1.56-0.02c-6.42,0-13.64-1.81-19.03,0.55c-4.86,2.13-7.54,8.97-11.48,13.47
		c-18.27,20.83-46.66,31.7-75.56,22.55c-12.06-3.82-22.76-10.06-31.13-19.7c-3.45-3.98-6.59-8.28-9.48-12.69
		c-2.08-3.18-4.31-4.93-8.37-4.56c-4.48,0.4-9.13-0.53-13.51,0.22c-8.74,1.5-13.91-2.72-18.25-9.43
		c-3.63-5.62-7.53-11.09-11.63-16.37c-1.04-1.34-3.32-2.36-5.06-2.41c-9.19-0.24-18.4-0.01-27.6-0.16
		c-5.06-0.08-7.82-2.75-6.75-6.94c0.51-2,2.77-3.87,4.69-5.08c1.29-0.81,3.37-0.47,5.1-0.44c4.99,0.09,10.08,0.94,10.59-6.71
		c0.1-1.5,4.06-3.83,6.3-3.9c11.62-0.39,23.25-0.19,34.89-0.17c4.3,0.01,6.59,2.17,7.46,6.4c1.21,5.89,3.33,11.64,4.05,17.57
		C769.43,347.75,773.28,349.05,777.71,350.75z M938.94,350.6c0.4,0.16,0.81,0.33,1.21,0.49c4.42-6.16,8.84-12.32,13.63-19
		c-4.09,0-7.25,0-10.71,0C941.65,338.43,940.3,344.51,938.94,350.6z M741.63,331.92c5.47,7.34,10.32,13.85,15.17,20.36
		c0.22-0.09,0.44-0.18,0.66-0.28c-1.75-6.65-3.5-13.29-5.28-20.08C748.94,331.92,745.88,331.92,741.63,331.92z"/>
	<path class="st0" d="M105.8,353.33c7.46-19.7,16.35-39.02,21.8-59.26c3.04-11.27,8.9-18.66,17.02-25.48
		c4.67-3.93,6.7-3.28,8.13,2.71c5.24,22.05,10.11,44.18,15.6,66.17c2,8.01,4.9,15.88,8.24,23.43c1.44,3.26,5.33,5.36,7.55,8.4
		c0.98,1.35,1.49,4.5,0.65,5.47c-4.1,4.69-8.59,9.06-13.22,13.24c-2.97,2.68-7.45,1.74-10.14-2.62c-3.06-4.96-6.04-10.22-7.7-15.76
		c-5.55-18.54-10.49-37.27-15.67-55.92c-0.22-0.79-0.5-1.56-1.2-3.75c-3.35,7.32-6.5,13.34-8.91,19.64
		c-5.57,14.5-10.69,29.18-16.23,43.69c-0.81,2.11-2.85,3.78-4.43,5.56c-2.53,2.85-5.17,5.6-7.72,8.43
		c-3.91,4.32-6.66,4.19-8.76-1.18c-7.35-18.82-14.4-37.76-21.5-56.68c-2.23-5.96-4.24-12-6.55-18.56
		c-7.43,21.08-14.12,41.61-22.05,61.65c-2.49,6.31-8.05,11.53-12.71,16.8c-2.09,2.37-6.01,0.38-5.53-2.98
		c0.93-6.42,2.23-12.92,4.48-18.98c7.2-19.43,15.43-38.49,22.13-58.08c2.67-7.81,2.35-16.63,3.45-24.98
		c0.17-1.32,0.18-3.01,0.98-3.85c3.56-3.78,7.18-7.55,11.15-10.88c3.95-3.3,6.38-2.8,8.38,2.06c6.24,15.17,12.27,30.43,18.11,45.76
		c4.53,11.88,8.64,23.91,12.94,35.88C104.66,353.28,105.23,353.3,105.8,353.33z"/>
	<path class="st0" d="M717.46,165.83c0.78,10.64-3.58,21.09-12.82,30.06c-5.79,5.62-10.66,12.25-15.53,18.75
		c-7.16,9.56-17.49,13.39-28.37,15.93c-21.42,5.01-41.69-5.79-52.02-27.52c-6.91-14.53-8.35-29.82-5.46-45.6
		c1.75-9.55,6.4-17.5,13.26-24.18c6.58-6.4,13.23-12.75,20.07-18.88c14.4-12.9,37.6-14.14,54.64-3.11
		C708.03,122.14,717.43,140.96,717.46,165.83z M690.17,182.98c-0.68-4.96-0.91-10.04-2.13-14.86
		c-4.43-17.49-13.63-31.42-31.21-38.08c-14.95-5.67-28.72,3.52-29,19.42c-0.12,6.48,0.46,13.25,2.26,19.45
		c4.59,15.83,12.87,29.25,29.26,35.39C675.24,210.25,689.95,199.77,690.17,182.98z"/>
	<path class="st0" d="M299.25,232.96c-13.59-0.31-24.6-4.95-34.16-12.93c-1.32-1.1-2.21-5.12-1.37-6.02
		c6.76-7.35,13.87-14.39,21.23-21.13c0.69-0.64,4.49,0.81,5.72,2.25c10.16,11.84,23.15,14.62,37.68,11.8
		c8.51-1.65,10.5-6.48,6.35-14.04c-3.32-6.05-8.75-9.73-15.12-12.01c-9.77-3.5-19.59-6.85-29.38-10.29
		c-1.63-0.57-3.22-1.25-4.79-1.98c-16.59-7.69-19.05-22.69-5.48-35.19c7.38-6.8,15.17-13.18,23.01-19.47
		c12.17-9.77,25.64-11.54,40.02-5.52c5.42,2.27,10.63,5.04,16.01,7.43c3.71,1.65,3.66,3.85,1.83,7.02
		c-5.23,9.1-14.1,13.61-22.93,17.98c-1.37,0.68-4.54-0.87-6.11-2.26c-5.9-5.22-11.8-10.3-19.94-11.49
		c-7.02-1.03-11.26,2.45-10.34,9.13c0.34,2.45,2.55,5.46,4.75,6.66c4.97,2.71,10.44,4.55,15.78,6.55
		c6.15,2.31,12.49,4.16,18.56,6.69c12.19,5.07,20.62,13.5,23.86,26.8c1.97,8.1,0.48,15.41-5.74,20.31
		c-16.01,12.63-32.1,25.45-53.11,29.07C303.18,232.71,300.74,232.81,299.25,232.96z"/>
	<path class="st0" d="M861.11,297.87c-0.82,3.3-1.4,5.62-2.06,8.25c8.89,4.3,15.44,10.78,18.38,20.4
		c2.03,6.64,1.97,13.22-0.71,19.72c-5.26,12.76-17.94,21.01-30.56,19.58c-12.32-1.4-25.62-9.41-27.71-27
		c-1.55-13.03,3.98-24.54,18.41-31.99c-0.71-2.8-1.44-5.68-2.18-8.61c-25.52,12.15-28.17,52.85-9.53,71.98
		c1.93,1.98,3.89,3.69,1.69,6.57c-2.66,3.49-5.14,0.91-7.07-0.67c-9.59-7.85-16.07-17.45-19.4-29.77
		c-4.18-15.45-1.39-29.69,5.99-42.84c5.33-9.5,13.67-16.99,24.48-20.74c2.71-0.94,3.91-2.18,4.51-5.25
		c2.38-12.14,5.19-24.21,8.21-36.21c0.41-1.64,2.93-3.85,4.44-3.82c1.47,0.03,3.77,2.36,4.2,4.06c2.98,11.85,5.66,23.77,8.21,35.72
		c0.63,2.98,1.84,4.61,4.79,5.8c22.36,9.07,34.65,34.02,30.95,57.57c-2.2,13.98-8.61,25.26-19.18,34.44
		c-2.39,2.08-5.17,4.1-7.72,1.56c-2.8-2.79,0.08-5.47,1.96-7.6c15.62-17.72,14.31-47.25-0.32-63.27
		C868.26,302.86,864.77,300.77,861.11,297.87z M840.39,319.96c-8.75,7.6-11.37,14.92-7.32,22.62c4.05,7.7,8.53,10.48,17.64,9.82
		c6.6-0.48,12.42-5.38,14.1-12.53c1.44-6.13,0.54-15.19-9.03-20.05c-1.19,5.29-2.4,10.42-3.46,15.57c-0.51,2.47-0.83,4.99-4.21,4.78
		c-3.41-0.21-4.45-2.3-4.84-5.52C842.69,329.92,841.47,325.26,840.39,319.96z"/>
	<path class="st0" d="M212.21,116.92c-0.42,21.14-1.12,42.27-1.11,63.41c0,7,1.31,14.13,3,20.96c1.59,6.4,4.86,7.03,9.57,2.4
		c2.69-2.65,5.04-5.71,7.23-8.8c2.32-3.28,4.73-3.59,7.87-1.25c3.06,2.28,3.14,4.61,0.69,7.41c-6.73,7.69-13.19,15.61-20.15,23.08
		c-2.78,2.99-6.37,5.4-9.96,7.42c-8.74,4.92-15.44,2.66-19.17-6.63c-5.4-13.43-6.24-27.75-6.1-41.91
		c0.32-30.67,1.26-61.34,2.44-91.99c0.51-13.29,0.8-26.3-5.75-38.49c-0.69-1.28-0.4-4.03,0.55-5.11
		c6.85-7.76,13.68-15.58,21.14-22.74c4.66-4.47,7.78-3.26,8.65,3.07c1.39,10.1,2.66,20.28,2.89,30.46
		c0.45,19.57,0.13,39.15,0.13,58.73C213.48,116.93,212.85,116.93,212.21,116.92z"/>
	<path class="st0" d="M450.51,323.96c-7.42,9.4-11.61,19.64-13.35,30.89c-0.66,4.27-1.21,8.65-1,12.94
		c0.49,10.3-5.91,16.6-12.69,22.61c-1.42,1.26-4.32,1.96-6.03,1.39c-1.2-0.4-2.09-3.39-2.14-5.25c-0.77-27.36-1.62-54.73-1.93-82.1
		c-0.17-15.05,1.83-30.01,11.32-42.37c4.88-6.36,11.44-11.48,17.52-16.85c0.9-0.79,3.93-0.45,4.87,0.48
		c0.85,0.84,0.92,4.11,0.1,4.77c-10.69,8.53-12.13,20.69-12.63,32.84c-0.59,14.65-0.14,29.33-0.14,44.46
		c5.93-6.43,11.2-12.27,16.64-17.94c1.52-1.59,3.41-3.01,5.4-3.94c4.83-2.25,10.04-2.69,14.29,0.79c4.13,3.39,4.97,8.53,2.9,13.31
		c-3.12,7.21-6.97,14.12-11.16,22.45c6.29,8.01,13.2,17.31,20.68,26.13c4,4.72,5.85,4.28,9.94-0.56c1.34-1.59,2.22-3.69,3.82-4.88
		c1.35-1.01,3.42-1.04,5.18-1.5c0.35,1.66,1.59,3.96,0.92,4.88c-5.44,7.5-10.58,15.42-17.12,21.88c-6.27,6.18-14.02,5.77-19.8-0.9
		c-9.27-10.71-17.64-22.21-26.07-33.6c-0.97-1.31-0.76-4.63,0.25-6.07c3.18-4.49,6.68-8.88,10.68-12.66
		C455.57,330.8,455.89,329.4,450.51,323.96z"/>
	<path class="st0" d="M788.47,123.4c6.54-5.41,12.68-11.68,19.92-16.21c13.07-8.19,27.71-4.71,36.33,7.24
		c2.23,3.09,2.58,5.99-0.05,8.3c-5.54,4.88-11.37,9.46-17.39,13.73c-1.19,0.84-3.88,0.13-5.63-0.53c-1.53-0.58-2.72-2.09-4.05-3.2
		c-8.39-7.09-17.34-5.98-22.02,4.15c-3.85,8.33-7,17.54-7.76,26.59c-0.97,11.59-0.9,23.82,1.9,34.99c2.04,8.14,1.42,13.6-3.79,19.43
		c-4.03,4.51-7.45,9.57-11.61,13.96c-4.49,4.74-7.14,3.9-8.76-2.41c-4.14-16.09-4.78-32.43-4.08-48.97
		c0.5-11.73,0.44-23.53-0.4-35.23c-0.37-5.12-3.04-10.18-5.18-15.04c-1.33-3.03-1.81-5.6,0.6-8.07c5.66-5.81,11.3-11.66,17.15-17.28
		c3.17-3.05,6.31-1.94,7.98,1.66C784.21,112.06,786.27,117.88,788.47,123.4z"/>
	<path class="st0" d="M247.58,332.96c-1.02-4.41-1.66-8.58-6.31-9.74c-4.73-1.19-7.84,1.75-10.53,5.15
		c-1.39,1.76-2.48,3.88-4.19,5.2c-1.13,0.87-3.55,1.3-4.62,0.66c-0.99-0.59-1.79-3.3-1.26-4.36c5.38-10.67,11.93-20.52,23.75-24.92
		c9.25-3.44,18.75,1.75,21.61,12.26c2.49,9.14,3.52,18.67,5.39,27.99c1.25,6.26,2.38,12.61,4.41,18.63c2.03,6.04,5.04,6.3,9.34,1.58
		c0.81-0.89,1.46-2.24,2.46-2.6c1.47-0.52,3.47-0.9,4.7-0.27c0.87,0.45,1.54,2.98,1.07,4.04c-3.88,8.77-8.59,17.1-17.01,22.35
		c-5.07,3.16-11.67,1.29-15.42-4.27c-2.39-3.53-3.97-7.61-6.34-12.27c-3.58,3.83-6.92,8.03-10.89,11.53
		c-6.7,5.89-15.03,6.86-21.66,3.14c-9.13-5.12-11.36-17.96-4.55-27.22C225.62,348.83,233.55,337.56,247.58,332.96z M251.16,354.33
		c-5.55-1.22-11.12-2.29-16.27,1.42c-3.66,2.63-3.8,6.61-0.33,9.5c3.41,2.84,7.22,4.07,11.44,1.88
		C250.69,364.7,252.18,360.9,251.16,354.33z"/>
	<path class="st0" d="M541.33,348.1c3.76,14.66,14.31,22.96,26.31,21.35c4.15-0.56,7.08-2.35,8.93-6.14
		c1.05-2.16,2.21-4.41,3.87-6.08c1.01-1.02,3.33-1.73,4.57-1.26c1.15,0.43,1.75,2.56,2.38,4.03c0.24,0.55-0.09,1.36-0.21,2.04
		c-3.57,20.87-31.39,33.92-49.09,22.6c-11.68-7.47-16.29-19.42-17.51-32.69c-1.1-11.92,1.73-22.66,10.94-31.14
		c4.05-3.73,7.33-8.49,11.8-11.56c14.32-9.85,27.99-3.55,36.82,7.85c2.33,3,0.83,5.74-1.86,7.54c-7.89,5.3-15.89,10.44-23.91,15.56
		C550.15,342.89,545.81,345.39,541.33,348.1z M540.29,334.52c5.38-3.04,10.38-5.87,15.67-8.86c-3.07-3.81-6.73-5.76-10.63-3.75
		C540.81,324.24,539.61,328.86,540.29,334.52z"/>
	<path class="st0" d="M626.47,327.07c-11.46-3.84-12.04-5.67-4.57-14.37c4.18-4.86,8.58-9.54,12.9-14.27
		c3.1-3.39,5.29-3.21,7.73,0.64c1.53,2.4,2.73,6.61,4.57,6.91c5.53,0.89,11.31,0.35,16.99,0.16c1.31-0.04,2.55-1.21,3.88-1.35
		c2.03-0.22,4.11,0.01,6.17,0.04c-0.3,2.26,0.16,5.1-1.04,6.68c-5.67,7.43-12.86,13-21.86,16.09c-1.39,0.48-3.49,1.83-3.52,2.84
		c-0.36,10-0.73,20.04-0.28,30.03c0.22,4.82,2.17,9.71,8.02,10.81c6.04,1.13,10.77-1.39,14.1-7.41c1.84-3.32,2.89-7.16,5.11-10.16
		c1.36-1.83,4.27-2.52,6.48-3.72c1.27,2.39,3.92,5.06,3.51,7.12c-0.82,4.08-2.47,8.66-5.3,11.54c-6.86,6.98-13.93,14.18-22.15,19.33
		c-12.66,7.94-26.32,1.6-29.48-13c-1.37-6.34-1.33-13.04-1.42-19.58c-0.11-7.44,0.36-14.9,0.51-22.35
		C626.85,331.16,626.61,329.26,626.47,327.07z"/>
	<path class="st0" d="M343.77,315.33c3.15-2.93,5.85-5.87,8.98-8.27c9.27-7.12,20.78-5.96,27.33,2.43c2.23,2.86,2.74,5.62,0.1,8.33
		c-2.28,2.34-4.7,4.58-7.24,6.63c-3.78,3.05-7.23,3.6-11.35-0.28c-5.16-4.87-9.91-3.73-13.22,2.92
		c-6.57,13.21-5.89,27.02-2.99,41.03c0.52,2.51,0.26,5.77-0.97,7.92c-2.39,4.16-5.5,7.98-8.74,11.55c-4.02,4.41-7.14,3.48-8.65-2.23
		c-3.46-13.11-2.77-26.43-2.03-39.75c0.46-8.38,0.32-16.62-4.02-24.18c-0.34-0.59-0.59-1.27-0.68-1.94
		c-0.61-4.19,11.8-17.77,15.82-16.71c2.02,0.53,3.77,3.16,5.02,5.21C342.35,310.03,342.8,312.52,343.77,315.33z"/>
</g>
</svg>
